<?xml version="1.0" encoding="UTF-8" standalone="no"?>
<!DOCTYPE svg PUBLIC "-//W3C//DTD SVG 1.1//EN" "http://www.w3.org/Graphics/SVG/1.1/DTD/svg11.dtd">

<svg
   xmlns:svg="http://www.w3.org/2000/svg"
   xmlns="http://www.w3.org/2000/svg"
   id="svg336"
   version="1.1"
   width="1024"
   height="263"
   viewBox="-1.45107423 -1.45107423 199.43923846 51.27128946">
  <defs
     id="defs333" />
  <path
     id="path48"
     d="M 13.61326,1.41602 13.46678,1.55079 C 10.94278,3.91878 2.55593,12.28915 0.61326,20.50782 l -0.0391,0.14453 c -0.0347,0.128 -0.0676,0.25419 -0.0996,0.38086 l -0.043,0.18554 c -0.04,0.17467 -0.0658,0.29788 -0.0898,0.42188 -0.016,0.08 -0.0296,0.15961 -0.043,0.23828 l -0.0215,0.125 c -0.0147,0.084 -0.031,0.16991 -0.043,0.25391 -0.02,0.13066 -0.0348,0.26191 -0.0508,0.39257 l -0.0274,0.23829 c -0.044,0.43466 -0.067,0.87702 -0.0684,1.31836 l 0.008,0.35546 c 0.003,0.096 0.004,0.19111 0.008,0.28711 0.007,0.13867 0.0161,0.27673 0.0254,0.41407 l 0.0137,0.17578 c 0.02,0.21466 0.0392,0.37106 0.0606,0.53906 l 0.0137,0.10156 h -0.002 c 0.904,6.644 6.64294,11.6543 13.34961,11.6543 6.56133,0 12.14348,-4.6903 13.27148,-11.1543 l 0.20508,-2.34961 c 0,-0.22266 -0.007,-0.44406 -0.0176,-0.66406 l -0.008,-0.10937 c -0.009,-0.18534 -0.0237,-0.36874 -0.041,-0.55274 l -0.0195,-0.15625 c -0.0173,-0.16533 -0.0366,-0.33014 -0.0606,-0.49414 l -0.0293,-0.17969 c -0.0253,-0.15333 -0.0533,-0.3076 -0.084,-0.46093 l -0.0391,-0.18555 c -0.032,-0.152 -0.0656,-0.30122 -0.10156,-0.44922 l -0.0469,-0.18164 c -0.04,-0.152 -0.0836,-0.30246 -0.1289,-0.45313 l -0.0469,-0.16015 c -0.0533,-0.168 -0.10868,-0.3321 -0.16601,-0.4961 l -0.0762,-0.21289 C 23.82366,11.64128 16.27027,3.95964 14.0116,1.79297 Z m -0.0781,8.63672 c 0.29333,10e-4 0.57424,0.12827 0.76758,0.34961 1.592,1.832 6.81343,8.15514 7.13476,12.61914 l 0.006,0.0742 c 0.0373,0.324 0.0547,0.62101 0.0547,0.90234 0,1.736 -0.54045,3.3935 -1.56445,4.79883 -1.152,1.62133 -2.85369,2.73167 -4.79102,3.125 -0.52933,0.112 -1.07319,0.16797 -1.61719,0.16797 h -0.0605 c -0.096,0 -0.19049,-0.008 -0.28516,-0.0156 l -0.21875,-0.0117 c -0.096,-0.004 -0.19049,-0.0102 -0.28516,-0.0195 -0.0453,-0.005 -0.087,-0.0129 -0.12695,-0.0195 -4.01067,-0.524 -7,-3.96939 -7,-8.02539 v -0.0371 c 0,-5.40267 5.32941,-11.42625 7.08008,-13.40625 l 0.13476,-0.15625 c 0.196,-0.22134 0.48482,-0.33237 0.77149,-0.3457 z m 13.5039,14.26562 -0.1914,2.19141 c 0.0253,-0.14933 0.0484,-0.29917 0.0684,-0.45117 l 0.0254,-0.19531 c 0.0147,-0.128 0.029,-0.25544 0.041,-0.38477 0.008,-0.088 0.0129,-0.17567 0.0195,-0.26367 l 0.008,-0.10547 c 0.007,-0.08 0.0116,-0.16086 0.0156,-0.24219 0.008,-0.18133 0.0123,-0.36616 0.0137,-0.54883 z m -0.75585,18.59961 -25.52539,0.002 C 0.33915,42.91997 0,43.25912 0,43.67779 v 3.29101 c 0,0.41867 0.34048,0.75977 0.75782,0.75977 h 25.52539 c 0.41866,0 0.75781,-0.3411 0.75781,-0.75977 v -3.29297 c 0,-0.41733 -0.33915,-0.75781 -0.75781,-0.75781 z"
     style="fill:#0aaca4;fill-opacity:1;fill-rule:nonzero;stroke:none;stroke-width:1.33333325" />
  <path
     id="path60"
     d="m 162.6035,0 c -0.28667,0 -0.51953,0.23349 -0.51953,0.52149 v 11.38086 c 0,0.62533 -0.70623,0.9819 -1.21289,0.61523 -1.196,-0.86666 -3.28909,-1.93554 -6.34375,-1.93554 -7.25467,0 -13,5.74358 -13,13.90625 0,8.16133 5.74533,13.90625 13,13.90625 4.016,0 6.38489,-1.64906 7.35156,-2.51172 0.26133,-0.23334 0.67374,-0.1397 0.81641,0.18164 l 0.76367,1.71875 c 0.0827,0.188 0.26927,0.30859 0.47461,0.30859 h 3.07226 c 0.28667,0 0.51953,-0.23286 0.51953,-0.51953 V 0.52149 C 167.52537,0.23349 167.29251,0 167.00584,0 Z M 51.62889,10.58204 c -6.65067,0 -12.39453,5.74344 -12.39453,13.30078 0,7.55733 5.74386,13.30078 12.39453,13.30078 3.20667,0 5.35624,-1.17717 6.51758,-2.0625 0.42666,-0.32534 1.04101,-0.009 1.04101,0.52734 v 1.23438 c 0,3.93066 -2.72112,6.65039 -6.95312,6.65039 -3.40134,0 -5.20797,-1.59573 -6.16797,-3.28907 -0.11733,-0.20533 -0.32907,-0.33984 -0.56641,-0.33984 h -4.16797 c -0.44933,0 -0.77042,0.44709 -0.62109,0.87109 1.46,4.156 5.3021,7.59375 11.52344,7.59375 7.55733,0 12.39453,-4.83566 12.39453,-11.48632 V 11.53711 c 0,-0.36133 -0.29296,-0.65234 -0.6543,-0.65234 h -2.85156 c -0.25733,0 -0.49232,0.15267 -0.59766,0.38867 l -0.65234,1.4707 c -0.176,0.396 -0.68629,0.51962 -1.01563,0.23829 -1.036,-0.884 -3.37384,-2.40039 -7.22851,-2.40039 z m 30.67773,0 c -3.30933,0 -5.4904,1.6098 -6.42773,2.48046 -0.268,0.248 -0.6977,0.15365 -0.8457,-0.17968 l -0.74805,-1.68164 c -0.0853,-0.19334 -0.27628,-0.31641 -0.48828,-0.31641 h -3.04883 c -0.29467,0 -0.5332,0.23854 -0.5332,0.5332 v 26.13867 c 0,0.29467 0.23853,0.53516 0.5332,0.53516 h 4.375 c 0.29467,0 0.5332,-0.24049 0.5332,-0.53516 V 22.67383 c 0,-3.62666 3.02239,-6.65039 6.65039,-6.65039 0.42,0 0.8445,0.0641 1.17383,0.13477 0.332,0.0693 0.63867,-0.18415 0.63867,-0.52149 v -4.37304 c 0,-0.24 -0.15534,-0.45101 -0.38867,-0.51368 -0.3,-0.08 -0.77583,-0.16796 -1.42383,-0.16796 z m 15.60938,0 c -7.25467,0 -13,5.74358 -13,13.90625 0,8.16133 5.74533,13.90625 13,13.90625 7.256,0 12.99804,-5.74492 12.99804,-13.90625 0,-8.16267 -5.74204,-13.90625 -12.99804,-13.90625 z m 29.51367,0 c -3.88533,0 -6.22929,1.54054 -7.25195,2.42187 -0.316,0.272 -0.7988,0.16711 -0.9668,-0.21289 L 118.52537,11.25 c -0.1,-0.22266 -0.31983,-0.36523 -0.5625,-0.36523 h -2.91601 c -0.34,0 -0.61524,0.27523 -0.61524,0.61523 v 25.97461 c 0,0.34 0.27524,0.61719 0.61524,0.61719 h 4.21094 c 0.33999,0 0.61523,-0.27719 0.61523,-0.61719 V 22.3711 c 0,-3.628 3.02434,-6.65039 6.65234,-6.65039 3.324,0 6.34766,3.02239 6.34766,6.65039 v 15.10351 c 0,0.34 0.27523,0.61719 0.61523,0.61719 h 4.21094 c 0.34,0 0.61524,-0.27719 0.61524,-0.61719 V 22.3711 c 0,-6.95334 -4.8381,-11.78906 -10.88477,-11.78906 z m 56.10742,0 c -7.25466,0 -12.99805,5.74358 -12.99805,13.90625 0,8.16133 5.74339,13.90625 12.99805,13.90625 4.07867,0 6.45853,-1.69817 7.39453,-2.54883 0.23734,-0.216 0.61934,-0.12927 0.75,0.16406 l 0.80078,1.79883 c 0.076,0.172 0.2456,0.2832 0.4336,0.2832 h 3.14453 c 0.26267,0 0.47656,-0.2139 0.47656,-0.47656 V 11.63477 c 0,-0.26267 -0.21389,-0.47461 -0.47656,-0.47461 h -4.49023 c -0.26134,0 -0.47461,0.21194 -0.47461,0.47461 v 0.85352 c 0,0.40399 -0.46925,0.62061 -0.78125,0.36328 -1.084,-0.89467 -3.31201,-2.26953 -6.77735,-2.26953 z M 97.916,15.72071 c 3.92933,0 7.55664,3.62758 7.55664,8.76758 0,5.13866 -3.62731,8.76562 -7.55664,8.76562 -3.93067,0 -7.5586,-3.62696 -7.5586,-8.76562 0,-5.14 3.62793,-8.76758 7.5586,-8.76758 z m 56.91406,0 c 4.232,0 6.98438,3.61914 6.98438,8.75781 0,5.14 -2.75238,8.77539 -6.98438,8.77539 -4.23333,0 -7.86133,-3.62696 -7.86133,-8.76562 0,-5.13867 3.628,-8.76758 7.86133,-8.76758 z m 29.00977,0 c 4.23333,0 7.30273,3.62891 7.30273,8.76758 0,5.13866 -3.0694,8.76562 -7.30273,8.76562 -4.232,0 -7.85938,-3.62696 -7.85938,-8.76562 0,-5.13867 3.62738,-8.76758 7.85938,-8.76758 z m -131.60547,0.002 c 3.92933,0 6.4414,3.62549 6.4414,8.16015 0,4.53467 -2.51348,8.16211 -6.38281,8.16211 -3.99067,0 -7.61719,-3.62744 -7.61719,-8.16211 0,-4.53466 3.62793,-8.16015 7.5586,-8.16015 z"
     style="fill:#0aaca4;fill-opacity:1;fill-rule:nonzero;stroke:none;stroke-width:1.33333325" />
</svg>

